Coordinates
version=1
nRows=11
nColumns=63
inDegrees=yes

Units are S.I. units (second, meters, Newtons, ...)
If the header above contains a line with 'inDegrees', this indicates whether rotational values are in degrees (yes) or radians (no).

endheader
time	pelvis_tilt	pelvis_list	pelvis_rotation	pelvis_tx	pelvis_ty	pelvis_tz	hip_flexion_r	hip_adduction_r	hip_rotation_r	knee_angle_r	knee_angle_r_beta	ankle_angle_r	subtalar_angle_r	mtp_angle_r	hip_flexion_l	hip_adduction_l	hip_rotation_l	knee_angle_l	knee_angle_l_beta	ankle_angle_l	subtalar_angle_l	mtp_angle_l	L5_S1_Flex_Ext	L5_S1_Lat_Bending	L5_S1_axial_rotation	L4_L5_Flex_Ext	L4_L5_Lat_Bending	L4_L5_axial_rotation	L3_L4_Flex_Ext	L3_L4_Lat_Bending	L3_L4_axial_rotation	L2_L3_Flex_Ext	L2_L3_Lat_Bending	L2_L3_axial_rotation	L1_L2_Flex_Ext	L1_L2_Lat_Bending	L1_L2_axial_rotation	L1_T12_Flex_Ext	L1_T12_Lat_Bending	L1_T12_axial_rotation	Abs_r3	Abs_r2	Abs_r1	Abs_t1	Abs_t2	neck_flexion	neck_bending	neck_rotation	arm_flex_r	arm_add_r	arm_rot_r	elbow_flex_r	pro_sup_r	wrist_flex_r	wrist_dev_r	arm_flex_l	arm_add_l	arm_rot_l	elbow_flex_l	pro_sup_l	wrist_flex_l	wrist_dev_l
      3.75000000	    -51.54658694	     -3.41736927	      2.76777591	     -0.37040285	      1.11852166	      0.04209733	     83.61019616	     -6.87461496	     -8.93928636	     52.79323929	      0.92141585	      2.52875513	      3.77576727	      0.00000000	    119.62467434	     -5.43635073	      3.71463551	    112.27088952	      1.95949668	     27.44312954	     13.10501225	      0.00000000	     -0.08127085	      0.36065654	     -0.32720549	     -0.15092810	      0.47967320	     -0.34765583	     -0.13351989	      0.87690031	     -0.34765583	     -0.09288446	      0.87690031	     -0.28630480	     -0.07546812	      0.73545081	     -0.26585446	     -0.04643817	      0.55865698	     -0.24540411	     -0.58050959	      4.07981889	     -1.81981875	      0.00000000	      0.00000000	     -0.00000000	      0.00000000	      0.00000000	     77.94346640	    -10.77039295	     23.64381956	     26.50968804	     34.38390384	      0.00000000	      5.00006802	     80.22462110	     -7.21729715	     24.05871018	     19.52613698	     56.27083988	      0.00000000	      5.00006802
      3.75800000	    -51.58287831	     -3.48598046	      2.60739405	     -0.37040883	      1.11872697	      0.04226390	     83.53352089	     -6.69094712	     -8.68752541	     53.68325564	      0.93694956	      2.65694555	      3.67271346	      0.00000000	    119.97488979	     -5.53444898	      3.59180388	    111.42425059	      1.94472004	     27.33208036	     12.86000903	      0.00000000	     -0.08093428	      0.36699326	     -0.29569304	     -0.15030306	      0.48810104	     -0.31417385	     -0.13296693	      0.89230742	     -0.31417385	     -0.09249979	      0.89230742	     -0.25873141	     -0.07515557	      0.74837266	     -0.24025059	     -0.04624585	      0.56847256	     -0.22176978	     -0.57810548	      4.15150117	     -1.64455597	      0.00000000	      0.00000000	     -0.00000000	      0.00000000	      0.00000000	     77.93904620	    -10.77996966	     23.59569017	     26.57961555	     34.38956941	      0.00000000	      5.00006723	     80.17551860	     -7.23384783	     24.10492487	     19.71320762	     56.25945781	      0.00000000	      5.00006723
      3.76700000	    -51.62766945	     -3.51863556	      2.46946902	     -0.37047704	      1.11893174	      0.04238847	     83.54440553	     -6.54362456	     -8.36521984	     54.73461156	      0.95529919	      2.83148963	      3.56647477	      0.00000000	    120.23764730	     -5.62748265	      3.41730809	    110.45913095	      1.92787552	     27.11329331	     12.61401695	      0.00000000	     -0.08086241	      0.37025520	     -0.26650439	     -0.15016958	      0.49243942	     -0.28316091	     -0.13284885	      0.90023850	     -0.28316091	     -0.09241765	      0.90023850	     -0.23319134	     -0.07508883	      0.75502441	     -0.21653481	     -0.04620478	      0.57352531	     -0.19987829	     -0.57759209	      4.18840093	     -1.48221745	      0.00000000	      0.00000000	     -0.00000000	      0.00000000	      0.00000000	     77.96024447	    -10.78142729	     23.55643334	     26.62643766	     34.39669136	      0.00000000	      5.00006646	     80.13570860	     -7.26357380	     24.13637491	     19.92946261	     56.24231631	      0.00000000	      5.00006646
      3.77500000	    -51.67056615	     -3.49718417	      2.35397847	     -0.37055456	      1.11915488	      0.04245687	     83.64260213	     -6.44260139	     -7.99162030	     55.95456630	      0.97659141	      3.03868188	      3.47255971	      0.00000000	    120.38214800	     -5.70629344	      3.17577542	    109.39085866	      1.90923066	     26.82376792	     12.37636281	      0.00000000	     -0.08070443	      0.36779866	     -0.24199156	     -0.14987619	      0.48917222	     -0.25711604	     -0.13258931	      0.89426567	     -0.25711604	     -0.09223709	      0.89426567	     -0.21174262	     -0.07494213	      0.75001503	     -0.19661815	     -0.04611451	      0.56972013	     -0.18149367	     -0.57646366	      4.16061202	     -1.34588448	      0.00000000	      0.00000000	     -0.00000000	      0.00000000	      0.00000000	     77.97843127	    -10.76202155	     23.52339439	     26.62879929	     34.40176267	      0.00000000	      5.00006564	     80.07946281	     -7.29296134	     24.15778279	     20.13207920	     56.22280956	      0.00000000	      5.00006564
      3.78300000	    -51.71780053	     -3.26199815	      2.39555496	     -0.37075688	      1.11944936	      0.04244328	     83.84184175	     -6.55254695	     -7.44352649	     57.31879986	      1.00040178	      3.29517512	      3.45480195	      0.00000000	    120.36007176	     -5.75983492	      2.61099750	    108.15402756	      1.88764388	     26.44486097	     12.14729044	      0.00000000	     -0.08317575	      0.33644037	     -0.25426137	     -0.15446569	      0.44746569	     -0.27015271	     -0.13664944	      0.81802111	     -0.27015271	     -0.09506156	      0.81802111	     -0.22247870	     -0.07723700	      0.68606919	     -0.20658737	     -0.04752662	      0.52114613	     -0.19069603	     -0.59411607	      3.80588071	     -1.41412549	      0.00000000	      0.00000000	     -0.00000000	      0.00000000	      0.00000000	     78.00566468	    -10.65022204	     23.47370779	     26.56466243	     34.38306049	      0.00000000	      5.00006421	     80.10968860	     -7.37658932	     24.15925611	     20.29421664	     56.20702250	      0.00000000	      5.00006421
      3.79200000	    -51.78147775	     -3.31476523	      2.15422043	     -0.37094878	      1.11965024	      0.04248109	     84.04363431	     -6.36984878	     -7.23553813	     58.68978355	      1.02432996	      3.52731751	      3.41734230	      0.00000000	    120.36527375	     -5.89910587	      2.44960242	    106.91492220	      1.86601741	     26.30844563	     11.97274877	      0.00000000	     -0.08112319	      0.34537248	     -0.19776460	     -0.15065387	      0.45934540	     -0.21012488	     -0.13327729	      0.83973864	     -0.21012488	     -0.09271569	      0.83973864	     -0.17304402	     -0.07533099	      0.70428356	     -0.16068373	     -0.04635379	      0.53498197	     -0.14832345	     -0.57945483	      3.90692254	     -1.09990735	      0.00000000	      0.00000000	     -0.00000000	      0.00000000	      0.00000000	     78.06624211	    -10.72014487	     23.42208482	     26.56475766	     34.39160154	      0.00000000	      5.00006337	     80.07876818	     -7.29940741	     24.16965978	     20.42936800	     56.17848466	      0.00000000	      5.00006337
      3.80000000	    -51.82902071	     -3.06194793	      2.19180485	     -0.37124678	      1.11987602	      0.04237990	     84.38091540	     -6.54090025	     -6.75521867	     60.28413512	      1.05215664	      3.81566162	      3.59818850	      0.00000000	    120.14364901	     -5.94322427	      1.87394769	    105.47491189	      1.84088449	     26.26006794	     12.18820685	      0.00000000	     -0.08211742	      0.31288710	     -0.20274952	     -0.15250027	      0.41613985	     -0.21542136	     -0.13491072	      0.76075371	     -0.21542136	     -0.09385200	      0.76075371	     -0.17740583	     -0.07625424	      0.63803938	     -0.16473398	     -0.04692190	      0.48466212	     -0.15206214	     -0.58655655	      3.53944150	     -1.12763198	      0.00000000	      0.00000000	     -0.00000000	      0.00000000	      0.00000000	     78.09656742	    -10.65838066	     23.36152758	     26.46300531	     34.35979485	      0.00000000	      5.00006166	     80.16683430	     -7.26917536	     24.12959383	     20.37775892	     56.15809197	      0.00000000	      5.00006166
      3.80800000	    -51.85792615	     -3.11038311	      1.91738124	     -0.37141944	      1.11996232	      0.04238220	     84.69799905	     -6.36392182	     -6.57705468	     61.89904174	      1.08034208	      4.06427741	      3.66800489	      0.00000000	    119.95397840	     -6.08086751	      1.75387418	    104.10969532	      1.81705697	     26.25499652	     12.36051787	      0.00000000	     -0.08172466	      0.32414669	     -0.14121746	     -0.15177086	      0.43111510	     -0.15004355	     -0.13426544	      0.78813026	     -0.15004355	     -0.09340311	      0.78813026	     -0.12356528	     -0.07588952	      0.66099993	     -0.11473919	     -0.04669747	      0.50210322	     -0.10591310	     -0.58375107	      3.66681219	     -0.78540916	      0.00000000	      0.00000000	     -0.00000000	      0.00000000	      0.00000000	     78.14325358	    -10.70994660	     23.32307756	     26.42866031	     34.33275907	      0.00000000	      5.00006110	     80.15990544	     -7.18005927	     24.12636675	     20.38664445	     56.16296818	      0.00000000	      5.00006110
      3.81700000	    -51.90423238	     -2.91750038	      1.90765842	     -0.37180752	      1.12009934	      0.04225086	     85.14513153	     -6.51871254	     -6.21507796	     63.64291809	      1.11077847	      4.31410581	      3.92465465	      0.00000000	    119.56028235	     -6.13556812	      1.25781285	    102.50061249	      1.78897317	     26.50782459	     12.88320649	      0.00000000	     -0.08184929	      0.30039061	     -0.13860656	     -0.15200231	      0.39951950	     -0.14726947	     -0.13447019	      0.73036972	     -0.14726947	     -0.09354555	      0.73036972	     -0.12128074	     -0.07600525	      0.61255652	     -0.11261783	     -0.04676868	      0.46530505	     -0.10395492	     -0.58464126	      3.39807860	     -0.77088813	      0.00000000	      0.00000000	     -0.00000000	      0.00000000	      0.00000000	     78.21031433	    -10.69100675	     23.29197506	     26.37182131	     34.28475459	      0.00000000	      5.00005988	     80.26417369	     -7.11125161	     24.07618836	     20.26746894	     56.16746088	      0.00000000	      5.00005988
      3.82500000	    -51.93607297	     -3.05229055	      1.52474485	     -0.37211963	      1.12010993	      0.04239919	     85.54622253	     -6.22738223	     -6.14373612	     65.31851363	      1.14002313	      4.56765656	      3.95540647	      0.00000000	    119.26011862	     -6.34718177	      1.25203646	    101.00392096	      1.76285098	     26.43115897	     13.02265660	      0.00000000	     -0.08248603	      0.32281035	     -0.06122726	     -0.15318480	      0.42933776	     -0.06505397	     -0.13551630	      0.78488108	     -0.06505397	     -0.09427328	      0.78488108	     -0.05357386	     -0.07659653	      0.65827486	     -0.04974715	     -0.04713252	      0.50003323	     -0.04592045	     -0.58918945	      3.65169524	     -0.34052767	      0.00000000	      0.00000000	     -0.00000000	      0.00000000	      0.00000000	     78.32362559	    -10.76086719	     23.25585503	     26.34589821	     34.26831009	      0.00000000	      5.00005958	     80.26717987	     -7.01876965	     24.07431088	     20.27510949	     56.16968450	      0.00000000	      5.00005958
      3.83300000	    -51.94618120	     -2.82485638	      1.64360178	     -0.37244605	      1.12007708	      0.04215544	     86.13451714	     -6.54408751	     -5.76408734	     67.30982410	      1.17477805	      4.73104888	      4.22924734	      0.00000000	    118.63858087	     -6.27179551	      0.72903584	     99.25249700	      1.73228286	     26.87509428	     13.64075056	      0.00000000	     -0.08240645	      0.29559563	     -0.09000110	     -0.15303702	      0.39314219	     -0.09562617	     -0.13538556	      0.71871122	     -0.09562617	     -0.09418234	      0.71871122	     -0.07875096	     -0.07652263	      0.60277861	     -0.07312589	     -0.04708705	      0.45787763	     -0.06750083	     -0.58862105	      3.34383689	     -0.50055913	      0.00000000	      0.00000000	     -0.00000000	      0.00000000	      0.00000000	     78.35194161	    -10.68699384	     23.26274862	     26.25157576	     34.23233517	      0.00000000	      5.00005848	     80.37818757	     -7.00361115	     24.00414676	     20.03551520	     56.17166100	      0.00000000	      5.00005848
